<?xml version="1.0" encoding="UTF-8" standalone="no"?>
<svg
   xmlns:dc="http://purl.org/dc/elements/1.1/"
   xmlns:cc="http://creativecommons.org/ns#"
   xmlns:rdf="http://www.w3.org/1999/02/22-rdf-syntax-ns#"
   xmlns:svg="http://www.w3.org/2000/svg"
   xmlns="http://www.w3.org/2000/svg"
   xmlns:sodipodi="http://sodipodi.sourceforge.net/DTD/sodipodi-0.dtd"
   xmlns:inkscape="http://www.inkscape.org/namespaces/inkscape"
   inkscape:version="1.0beta2 (2b71d25, 2019-12-03)"
   sodipodi:docname="logo_2.svg"
   id="svg18"
   viewBox="0 0 111 28"
   version="1.1"
   fill="none"
   height="28"
   width="111">
  <metadata
     id="metadata24">
    <rdf:RDF>
      <cc:Work
         rdf:about="">
        <dc:format>image/svg+xml</dc:format>
        <dc:type
           rdf:resource="http://purl.org/dc/dcmitype/StillImage" />
        <dc:title></dc:title>
      </cc:Work>
    </rdf:RDF>
  </metadata>
  <defs
     id="defs22" />
  <sodipodi:namedview
     inkscape:current-layer="svg18"
     inkscape:window-maximized="0"
     inkscape:window-y="23"
     inkscape:window-x="145"
     inkscape:cy="14"
     inkscape:cx="26.485019"
     inkscape:zoom="11.234234"
     showgrid="false"
     id="namedview20"
     inkscape:window-height="785"
     inkscape:window-width="1196"
     inkscape:pageshadow="2"
     inkscape:pageopacity="0"
     guidetolerance="10"
     gridtolerance="10"
     objecttolerance="10"
     borderopacity="1"
     inkscape:document-rotation="0"
     bordercolor="#666666"
     pagecolor="#ffffff" />
  <path
     inkscape:connector-curvature="0"
     id="path12"
     stroke-width=".32112"
     fill="#008000"
     d="M 6.4940921,26.6011 C 6.2483405,26.304983 6.195259,26.062701 6.3761331,26.062701 c 0.4959046,0 0.3289992,-3.666485 -0.1745438,-3.834333 -0.2351753,-0.07839 -0.3381677,-0.287215 -0.2288782,-0.464053 0.1092884,-0.176839 -0.04991,-0.226118 -0.3537883,-0.109512 -0.3038775,0.116607 -0.5525005,0.03467 -0.5525005,-0.182082 0,-0.21675 0.1927144,-0.394099 0.4282555,-0.394099 0.2355411,0 -0.1588567,-0.601258 -0.8764443,-1.336129 l -1.3047553,-1.33613 0.8599811,-0.710892 c 0.472989,-0.390994 0.8673978,-0.928284 0.8764443,-1.194002 0.00937,-0.275807 0.2406962,-0.397047 0.5390638,-0.282547 0.2874364,0.110298 0.6172892,0.04734 0.7330199,-0.13991 0.1157306,-0.187249 0.035123,-0.340463 -0.1791225,-0.340463 -0.2487117,0 -0.2803523,-0.225231 -0.087518,-0.62301 0.3400634,-0.701468 0.3067156,-1.924594 -0.069055,-2.532571 -0.137471,-0.222426 -0.085923,-0.404419 0.1145444,-0.404419 0.6853374,0 1.1216084,-1.324822 0.7544055,-2.2907778 -0.27084,-0.7123657 -0.2369711,-0.9133173 0.1539566,-0.9133173 0.2756627,0 0.6028991,-0.3204073 0.7271885,-0.7120113 C 7.8606761,7.8708387 8.1518264,7.5479813 8.3833875,7.5449769 8.6322101,7.5417513 8.5860021,7.3983818 8.2703952,7.1944258 7.8140357,6.8995061 7.8269735,6.8485309 8.3593933,6.8438747 8.8312404,6.8397473 8.9824031,6.5405515 8.9824031,5.6107374 c 0,-0.790015 0.2938776,-1.5447753 0.8243491,-2.1171647 0.9841928,-1.0619637 2.7356738,-1.5130682 2.7356738,-0.7046388 0,0.2922922 0.146517,0.440894 0.325595,0.3302076 0.179079,-0.1106775 0.40932,2.01e-5 0.511648,0.2459956 0.132127,0.3176135 0.349852,0.2434456 0.751246,-0.2559068 0.478122,-0.594795 0.674162,-0.6350829 1.272494,-0.2614499 0.584318,0.3649079 0.876677,0.3327464 1.682246,-0.185087 0.536225,-0.3447197 1.242782,-0.9573194 1.570163,-1.3612958 0.454597,-0.5610703 0.89538,-0.699528 1.866169,-0.586192 0.699051,0.08161 1.190233,0.2790773 1.091498,0.4388319 -0.09873,0.1597436 0.08592,0.3426244 0.410329,0.4063932 0.394142,0.077478 0.636102,0.5684871 0.729317,1.4800308 0.09433,0.9224639 0.01387,1.2863519 -0.248557,1.1241583 -0.491292,-0.3036336 -2.700973,1.1900113 -3.161612,2.1371201 -0.814626,1.6749293 -0.788917,2.2437711 0.143536,3.1762463 1.125932,1.1260428 1.885792,1.1728268 2.267828,0.139965 0.279465,-0.7554697 0.296594,-0.7492392 0.533299,0.193856 0.164721,0.6563138 0.03767,1.3344668 -0.389209,2.0772538 -0.41789,0.727189 -0.499807,1.150433 -0.240508,1.242561 0.216295,0.07684 0.317769,0.534629 0.225497,1.017308 -0.120232,0.628963 -0.01064,0.877597 0.386737,0.877597 0.724527,0 1.130034,0.676934 0.676878,1.130034 -0.237337,0.237337 -0.432934,0.231528 -0.58679,-0.01741 -0.159267,-0.257702 -0.527967,-0.26043 -1.18979,-0.0088 -0.666779,0.253512 -0.997419,0.249366 -1.085079,-0.0136 -0.223257,-0.669761 -1.78934,-0.40259 -2.352417,0.401316 -0.300308,0.428743 -0.650859,0.674683 -0.779006,0.546536 -0.128148,-0.128148 -0.536891,-0.07037 -0.908318,0.128413 -0.565128,0.302448 -0.652976,0.676236 -0.538432,2.290888 0.07529,1.061188 0.0072,1.849318 -0.151274,1.751315 -0.293478,-0.181373 -1.211186,2.551529 -1.093515,3.256289 0.05824,0.348667 -0.981211,1.002031 -1.897876,1.193005 -0.195808,0.04079 -0.88844,0.403222 -1.539232,0.805414 -0.9889598,0.611169 -1.3315848,0.66363 -2.086899,0.319476 C 8.1082647,26.522342 7.6994215,26.509981 7.3877392,26.768624 7.0688507,27.033277 6.8127999,26.985296 6.493978,26.601142 Z" />
  <text
     id="text16"
     xml:space="preserve"
     style="font-variant-caps:normal;font-variant-east-asian:normal;font-variant-ligatures:normal;font-variant-numeric:normal;line-height:1.25"
     font-size="24px"
     font-family="'Noto Sans Javanese'"
     fill="#999999"
     y="22.479017"
     x="30.177303"><tspan
       id="tspan14"
       y="22.479017"
       x="30.177303">長野県</tspan></text>
</svg>
